<?xml version="1.0" encoding="UTF-8" standalone="no"?>
<!DOCTYPE svg PUBLIC "-//W3C//DTD SVG 1.1//EN"
 "http://www.w3.org/Graphics/SVG/1.1/DTD/svg11.dtd">
<!-- Generated by graphviz version 12.1.1 (20240910.0053)
 -->
<!-- Title: INFRA Pages: 1 -->
<svg width="1690pt" height="512pt"
 viewBox="0.00 0.00 1689.95 512.00" xmlns="http://www.w3.org/2000/svg" xmlns:xlink="http://www.w3.org/1999/xlink">
<g id="graph0" class="graph" transform="scale(1 1) rotate(0) translate(4 508)">
<title>INFRA</title>
<polygon fill="white" stroke="none" points="-4,4 -4,-508 1685.95,-508 1685.95,4 -4,4"/>
<!-- source&#45;vpc -->
<g id="node1" class="node">
<title>source&#45;vpc</title>
<path fill="#e6e6e6" stroke="black" stroke-width="2" d="M410.94,-180C410.94,-180 249.29,-180 249.29,-180 243.29,-180 237.29,-174 237.29,-168 237.29,-168 237.29,-120 237.29,-120 237.29,-114 243.29,-108 249.29,-108 249.29,-108 410.94,-108 410.94,-108 416.94,-108 422.94,-114 422.94,-120 422.94,-120 422.94,-168 422.94,-168 422.94,-174 416.94,-180 410.94,-180"/>
<text text-anchor="middle" x="330.11" y="-148.2" font-family="Arial" font-size="14.00">source&#45;vpc</text>
<text text-anchor="middle" x="330.11" y="-131.4" font-family="Arial" font-size="14.00">(google_compute_network)</text>
</g>
<!-- source&#45;public&#45;subnet -->
<g id="node2" class="node">
<title>source&#45;public&#45;subnet</title>
<path fill="#e6e6e6" stroke="black" stroke-width="2" d="M422.23,-288C422.23,-288 238,-288 238,-288 232,-288 226,-282 226,-276 226,-276 226,-228 226,-228 226,-222 232,-216 238,-216 238,-216 422.23,-216 422.23,-216 428.23,-216 434.23,-222 434.23,-228 434.23,-228 434.23,-276 434.23,-276 434.23,-282 428.23,-288 422.23,-288"/>
<text text-anchor="middle" x="330.11" y="-256.2" font-family="Arial" font-size="14.00">source&#45;public&#45;subnet</text>
<text text-anchor="middle" x="330.11" y="-239.4" font-family="Arial" font-size="14.00">(google_compute_subnetwork)</text>
</g>
<!-- source&#45;public&#45;subnet&#45;&gt;source&#45;vpc -->
<g id="edge1" class="edge">
<title>source&#45;public&#45;subnet&#45;&gt;source&#45;vpc</title>
<path fill="none" stroke="black" d="M330.11,-215.7C330.11,-207.93 330.11,-199.57 330.11,-191.43"/>
<polygon fill="black" stroke="black" points="333.61,-191.66 330.11,-181.66 326.61,-191.66 333.61,-191.66"/>
</g>
<!-- source&#45;private&#45;subnet -->
<g id="node3" class="node">
<title>source&#45;private&#45;subnet</title>
<path fill="#e6e6e6" stroke="black" stroke-width="2" d="M196.23,-288C196.23,-288 12,-288 12,-288 6,-288 0,-282 0,-276 0,-276 0,-228 0,-228 0,-222 6,-216 12,-216 12,-216 196.23,-216 196.23,-216 202.23,-216 208.23,-222 208.23,-228 208.23,-228 208.23,-276 208.23,-276 208.23,-282 202.23,-288 196.23,-288"/>
<text text-anchor="middle" x="104.11" y="-256.2" font-family="Arial" font-size="14.00">source&#45;private&#45;subnet</text>
<text text-anchor="middle" x="104.11" y="-239.4" font-family="Arial" font-size="14.00">(google_compute_subnetwork)</text>
</g>
<!-- source&#45;private&#45;subnet&#45;&gt;source&#45;vpc -->
<g id="edge2" class="edge">
<title>source&#45;private&#45;subnet&#45;&gt;source&#45;vpc</title>
<path fill="none" stroke="black" d="M179.68,-215.56C200.41,-205.83 223.04,-195.22 244.3,-185.25"/>
<polygon fill="black" stroke="black" points="245.68,-188.47 253.25,-181.05 242.71,-182.13 245.68,-188.47"/>
</g>
<!-- source_db_password_secret -->
<g id="node4" class="node">
<title>source_db_password_secret</title>
<path fill="#fff5cd" stroke="black" stroke-width="2" d="M667.23,-173.45C667.23,-177.07 617.42,-180 556.11,-180 494.8,-180 445,-177.07 445,-173.45 445,-173.45 445,-114.55 445,-114.55 445,-110.93 494.8,-108 556.11,-108 617.42,-108 667.23,-110.93 667.23,-114.55 667.23,-114.55 667.23,-173.45 667.23,-173.45"/>
<path fill="none" stroke="black" stroke-width="2" d="M667.23,-173.45C667.23,-169.84 617.42,-166.91 556.11,-166.91 494.8,-166.91 445,-169.84 445,-173.45"/>
<text text-anchor="middle" x="556.11" y="-148.2" font-family="Arial" font-size="14.00">source_db_password_secret</text>
<text text-anchor="middle" x="556.11" y="-131.4" font-family="Arial" font-size="14.00">(google_secret_manager_secret)</text>
</g>
<!-- source&#45;db -->
<g id="node5" class="node">
<title>source&#45;db</title>
<path fill="#ffcfb3" stroke="black" stroke-width="2" d="M670.3,-281.45C670.3,-285.07 621.36,-288 561.11,-288 500.87,-288 451.93,-285.07 451.93,-281.45 451.93,-281.45 451.93,-222.55 451.93,-222.55 451.93,-218.93 500.87,-216 561.11,-216 621.36,-216 670.3,-218.93 670.3,-222.55 670.3,-222.55 670.3,-281.45 670.3,-281.45"/>
<path fill="none" stroke="black" stroke-width="2" d="M670.3,-281.45C670.3,-277.84 621.36,-274.91 561.11,-274.91 500.87,-274.91 451.93,-277.84 451.93,-281.45"/>
<text text-anchor="middle" x="561.11" y="-256.2" font-family="Arial" font-size="14.00">source&#45;db</text>
<text text-anchor="middle" x="561.11" y="-239.4" font-family="Arial" font-size="14.00">(google_sql_database_instance)</text>
</g>
<!-- source&#45;db&#45;&gt;source&#45;vpc -->
<g id="edge3" class="edge">
<title>source&#45;db&#45;&gt;source&#45;vpc</title>
<path fill="none" stroke="black" d="M485.79,-216.44C463.99,-206.43 440,-195.42 417.52,-185.11"/>
<polygon fill="black" stroke="black" points="419.23,-182.04 408.69,-181.05 416.31,-188.41 419.23,-182.04"/>
</g>
<!-- source&#45;db&#45;&gt;source_db_password_secret -->
<g id="edge4" class="edge">
<title>source&#45;db&#45;&gt;source_db_password_secret</title>
<path fill="none" stroke="black" d="M559.45,-215.7C559.08,-207.93 558.69,-199.57 558.3,-191.43"/>
<polygon fill="black" stroke="black" points="561.81,-191.48 557.84,-181.65 554.82,-191.81 561.81,-191.48"/>
</g>
<!-- destination&#45;vpc -->
<g id="node6" class="node">
<title>destination&#45;vpc</title>
<path fill="#e6e6e6" stroke="black" stroke-width="2" d="M1331.51,-72C1331.51,-72 1226.72,-72 1226.72,-72 1220.72,-72 1214.72,-66 1214.72,-60 1214.72,-60 1214.72,-12 1214.72,-12 1214.72,-6 1220.72,0 1226.72,0 1226.72,0 1331.51,0 1331.51,0 1337.51,0 1343.51,-6 1343.51,-12 1343.51,-12 1343.51,-60 1343.51,-60 1343.51,-66 1337.51,-72 1331.51,-72"/>
<text text-anchor="middle" x="1279.11" y="-40.2" font-family="Arial" font-size="14.00">destination&#45;vpc</text>
<text text-anchor="middle" x="1279.11" y="-23.4" font-family="Arial" font-size="14.00">(AWS::EC2::VPC)</text>
</g>
<!-- destination_rds_sg -->
<g id="node7" class="node">
<title>destination_rds_sg</title>
<path fill="#e6e6e6" stroke="black" stroke-width="2" d="M1107.86,-180C1107.86,-180 942.37,-180 942.37,-180 936.37,-180 930.37,-174 930.37,-168 930.37,-168 930.37,-120 930.37,-120 930.37,-114 936.37,-108 942.37,-108 942.37,-108 1107.86,-108 1107.86,-108 1113.86,-108 1119.86,-114 1119.86,-120 1119.86,-120 1119.86,-168 1119.86,-168 1119.86,-174 1113.86,-180 1107.86,-180"/>
<text text-anchor="middle" x="1025.11" y="-148.2" font-family="Arial" font-size="14.00">destination_rds_sg</text>
<text text-anchor="middle" x="1025.11" y="-131.4" font-family="Arial" font-size="14.00">(AWS::EC2::SecurityGroup)</text>
</g>
<!-- destination_rds_sg&#45;&gt;destination&#45;vpc -->
<g id="edge5" class="edge">
<title>destination_rds_sg&#45;&gt;destination&#45;vpc</title>
<path fill="none" stroke="black" d="M1110.04,-107.56C1140.49,-94.85 1174.57,-80.63 1204.12,-68.3"/>
<polygon fill="black" stroke="black" points="1205.09,-71.69 1212.97,-64.6 1202.39,-65.23 1205.09,-71.69"/>
</g>
<!-- destination public subnet -->
<g id="node8" class="node">
<title>destination public subnet</title>
<path fill="#e6e6e6" stroke="black" stroke-width="2" d="M1296.17,-180C1296.17,-180 1150.06,-180 1150.06,-180 1144.06,-180 1138.06,-174 1138.06,-168 1138.06,-168 1138.06,-120 1138.06,-120 1138.06,-114 1144.06,-108 1150.06,-108 1150.06,-108 1296.17,-108 1296.17,-108 1302.17,-108 1308.17,-114 1308.17,-120 1308.17,-120 1308.17,-168 1308.17,-168 1308.17,-174 1302.17,-180 1296.17,-180"/>
<text text-anchor="middle" x="1223.11" y="-148.2" font-family="Arial" font-size="14.00">destination public subnet</text>
<text text-anchor="middle" x="1223.11" y="-131.4" font-family="Arial" font-size="14.00">(AWS::EC2::Subnet)</text>
</g>
<!-- destination public subnet&#45;&gt;destination&#45;vpc -->
<g id="edge6" class="edge">
<title>destination public subnet&#45;&gt;destination&#45;vpc</title>
<path fill="none" stroke="black" d="M1241.76,-107.7C1246.06,-99.57 1250.69,-90.8 1255.18,-82.31"/>
<polygon fill="black" stroke="black" points="1258.26,-83.96 1259.84,-73.48 1252.07,-80.69 1258.26,-83.96"/>
</g>
<!-- destination private subnet -->
<g id="node9" class="node">
<title>destination private subnet</title>
<path fill="#e6e6e6" stroke="black" stroke-width="2" d="M1565.89,-180C1565.89,-180 1414.34,-180 1414.34,-180 1408.34,-180 1402.34,-174 1402.34,-168 1402.34,-168 1402.34,-120 1402.34,-120 1402.34,-114 1408.34,-108 1414.34,-108 1414.34,-108 1565.89,-108 1565.89,-108 1571.89,-108 1577.89,-114 1577.89,-120 1577.89,-120 1577.89,-168 1577.89,-168 1577.89,-174 1571.89,-180 1565.89,-180"/>
<text text-anchor="middle" x="1490.11" y="-148.2" font-family="Arial" font-size="14.00">destination private subnet</text>
<text text-anchor="middle" x="1490.11" y="-131.4" font-family="Arial" font-size="14.00">(AWS::EC2::Subnet)</text>
</g>
<!-- destination private subnet&#45;&gt;destination&#45;vpc -->
<g id="edge7" class="edge">
<title>destination private subnet&#45;&gt;destination&#45;vpc</title>
<path fill="none" stroke="black" d="M1419.56,-107.56C1398.56,-97 1375.47,-85.41 1354.19,-74.72"/>
<polygon fill="black" stroke="black" points="1355.77,-71.59 1345.26,-70.23 1352.62,-77.85 1355.77,-71.59"/>
</g>
<!-- destination public route table -->
<g id="node10" class="node">
<title>destination public route table</title>
<path fill="#e6e6e6" stroke="black" stroke-width="2" d="M1428.23,-288C1428.23,-288 1258,-288 1258,-288 1252,-288 1246,-282 1246,-276 1246,-276 1246,-228 1246,-228 1246,-222 1252,-216 1258,-216 1258,-216 1428.23,-216 1428.23,-216 1434.23,-216 1440.23,-222 1440.23,-228 1440.23,-228 1440.23,-276 1440.23,-276 1440.23,-282 1434.23,-288 1428.23,-288"/>
<text text-anchor="middle" x="1343.11" y="-256.2" font-family="Arial" font-size="14.00">destination public route table</text>
<text text-anchor="middle" x="1343.11" y="-239.4" font-family="Arial" font-size="14.00">(AWS::EC2::RouteTable)</text>
</g>
<!-- destination public route table&#45;&gt;destination&#45;vpc -->
<g id="edge8" class="edge">
<title>destination public route table&#45;&gt;destination&#45;vpc</title>
<path fill="none" stroke="black" d="M1352.99,-215.77C1359.49,-185.91 1364.43,-142.56 1350.11,-108 1346,-98.08 1339.76,-88.82 1332.65,-80.48"/>
<polygon fill="black" stroke="black" points="1335.35,-78.24 1326,-73.25 1330.19,-82.98 1335.35,-78.24"/>
</g>
<!-- destination public route table&#45;&gt;destination public subnet -->
<g id="edge9" class="edge">
<title>destination public route table&#45;&gt;destination public subnet</title>
<path fill="none" stroke="black" d="M1303.16,-215.7C1292.93,-206.67 1281.83,-196.87 1271.25,-187.52"/>
<polygon fill="black" stroke="black" points="1273.84,-185.14 1264.03,-181.14 1269.21,-190.39 1273.84,-185.14"/>
</g>
<!-- destination private route table -->
<g id="node11" class="node">
<title>destination private route table</title>
<path fill="#e6e6e6" stroke="black" stroke-width="2" d="M1669.95,-288C1669.95,-288 1494.28,-288 1494.28,-288 1488.28,-288 1482.28,-282 1482.28,-276 1482.28,-276 1482.28,-228 1482.28,-228 1482.28,-222 1488.28,-216 1494.28,-216 1494.28,-216 1669.95,-216 1669.95,-216 1675.95,-216 1681.95,-222 1681.95,-228 1681.95,-228 1681.95,-276 1681.95,-276 1681.95,-282 1675.95,-288 1669.95,-288"/>
<text text-anchor="middle" x="1582.11" y="-256.2" font-family="Arial" font-size="14.00">destination private route table</text>
<text text-anchor="middle" x="1582.11" y="-239.4" font-family="Arial" font-size="14.00">(AWS::EC2::RouteTable)</text>
</g>
<!-- destination private route table&#45;&gt;destination&#45;vpc -->
<g id="edge10" class="edge">
<title>destination private route table&#45;&gt;destination&#45;vpc</title>
<path fill="none" stroke="black" d="M1595.12,-215.55C1604.24,-183.9 1611.01,-138.03 1587.11,-108 1558.64,-72.22 1436.7,-52.93 1355.06,-43.83"/>
<polygon fill="black" stroke="black" points="1355.65,-40.38 1345.33,-42.78 1354.89,-47.33 1355.65,-40.38"/>
</g>
<!-- destination private route table&#45;&gt;destination private subnet -->
<g id="edge11" class="edge">
<title>destination private route table&#45;&gt;destination private subnet</title>
<path fill="none" stroke="black" d="M1551.48,-215.7C1543.95,-207.03 1535.81,-197.65 1527.98,-188.63"/>
<polygon fill="black" stroke="black" points="1530.8,-186.54 1521.61,-181.29 1525.52,-191.13 1530.8,-186.54"/>
</g>
<!-- destination_rds_secrets -->
<g id="node12" class="node">
<title>destination_rds_secrets</title>
<path fill="#fff5cd" stroke="black" stroke-width="2" d="M1154.09,-497.45C1154.09,-501.07 1105.69,-504 1046.11,-504 986.53,-504 938.14,-501.07 938.14,-497.45 938.14,-497.45 938.14,-438.55 938.14,-438.55 938.14,-434.93 986.53,-432 1046.11,-432 1105.69,-432 1154.09,-434.93 1154.09,-438.55 1154.09,-438.55 1154.09,-497.45 1154.09,-497.45"/>
<path fill="none" stroke="black" stroke-width="2" d="M1154.09,-497.45C1154.09,-493.84 1105.69,-490.91 1046.11,-490.91 986.53,-490.91 938.14,-493.84 938.14,-497.45"/>
<text text-anchor="middle" x="1046.11" y="-472.2" font-family="Arial" font-size="14.00">destination_rds_secrets</text>
<text text-anchor="middle" x="1046.11" y="-455.4" font-family="Arial" font-size="14.00">(AWS::SecretsManager::Secret)</text>
</g>
<!-- destinationdb -->
<g id="node13" class="node">
<title>destinationdb</title>
<path fill="#ffcfb3" stroke="black" stroke-width="2" d="M1167.46,-281.45C1167.46,-285.07 1128.31,-288 1080.11,-288 1031.91,-288 992.76,-285.07 992.76,-281.45 992.76,-281.45 992.76,-222.55 992.76,-222.55 992.76,-218.93 1031.91,-216 1080.11,-216 1128.31,-216 1167.46,-218.93 1167.46,-222.55 1167.46,-222.55 1167.46,-281.45 1167.46,-281.45"/>
<path fill="none" stroke="black" stroke-width="2" d="M1167.46,-281.45C1167.46,-277.84 1128.31,-274.91 1080.11,-274.91 1031.91,-274.91 992.76,-277.84 992.76,-281.45"/>
<text text-anchor="middle" x="1080.11" y="-256.2" font-family="Arial" font-size="14.00">destinationdb</text>
<text text-anchor="middle" x="1080.11" y="-239.4" font-family="Arial" font-size="14.00">(AWS::RDS::DBInstance)</text>
</g>
<!-- destinationdb&#45;&gt;destination&#45;vpc -->
<g id="edge12" class="edge">
<title>destinationdb&#45;&gt;destination&#45;vpc</title>
<path fill="none" stroke="black" d="M1167.95,-230.07C1231.46,-214.05 1307.72,-192.62 1317.11,-180 1338.27,-151.58 1325.6,-112.28 1309.41,-82.07"/>
<polygon fill="black" stroke="black" points="1312.55,-80.5 1304.58,-73.52 1306.45,-83.95 1312.55,-80.5"/>
</g>
<!-- destinationdb&#45;&gt;destination_rds_sg -->
<g id="edge13" class="edge">
<title>destinationdb&#45;&gt;destination_rds_sg</title>
<path fill="none" stroke="black" d="M1061.8,-215.7C1057.58,-207.57 1053.03,-198.8 1048.62,-190.31"/>
<polygon fill="black" stroke="black" points="1051.76,-188.75 1044.04,-181.49 1045.54,-191.97 1051.76,-188.75"/>
</g>
<!-- destinationdb&#45;&gt;destination public subnet -->
<g id="edge14" class="edge">
<title>destinationdb&#45;&gt;destination public subnet</title>
<path fill="none" stroke="black" d="M1127.73,-215.7C1140.15,-206.5 1153.66,-196.48 1166.5,-186.97"/>
<polygon fill="black" stroke="black" points="1168.54,-189.81 1174.49,-181.04 1164.37,-184.19 1168.54,-189.81"/>
</g>
<!-- dms&#45;vpc&#45;role -->
<g id="node14" class="node">
<title>dms&#45;vpc&#45;role</title>
<path fill="#e6e6e6" stroke="black" stroke-width="2" d="M1286.34,-504C1286.34,-504 1183.89,-504 1183.89,-504 1177.89,-504 1171.89,-498 1171.89,-492 1171.89,-492 1171.89,-444 1171.89,-444 1171.89,-438 1177.89,-432 1183.89,-432 1183.89,-432 1286.34,-432 1286.34,-432 1292.34,-432 1298.34,-438 1298.34,-444 1298.34,-444 1298.34,-492 1298.34,-492 1298.34,-498 1292.34,-504 1286.34,-504"/>
<text text-anchor="middle" x="1235.11" y="-472.2" font-family="Arial" font-size="14.00">dms&#45;vpc&#45;role</text>
<text text-anchor="middle" x="1235.11" y="-455.4" font-family="Arial" font-size="14.00">(AWS::IAM::Role)</text>
</g>
<!-- dms&#45;cloudwatch&#45;logs&#45;role -->
<g id="node15" class="node">
<title>dms&#45;cloudwatch&#45;logs&#45;role</title>
<path fill="#e6e6e6" stroke="black" stroke-width="2" d="M1479.86,-504C1479.86,-504 1328.36,-504 1328.36,-504 1322.36,-504 1316.36,-498 1316.36,-492 1316.36,-492 1316.36,-444 1316.36,-444 1316.36,-438 1322.36,-432 1328.36,-432 1328.36,-432 1479.86,-432 1479.86,-432 1485.86,-432 1491.86,-438 1491.86,-444 1491.86,-444 1491.86,-492 1491.86,-492 1491.86,-498 1485.86,-504 1479.86,-504"/>
<text text-anchor="middle" x="1404.11" y="-472.2" font-family="Arial" font-size="14.00">dms&#45;cloudwatch&#45;logs&#45;role</text>
<text text-anchor="middle" x="1404.11" y="-455.4" font-family="Arial" font-size="14.00">(AWS::IAM::Role)</text>
</g>
<!-- dms&#45;security&#45;group -->
<g id="node16" class="node">
<title>dms&#45;security&#45;group</title>
<path fill="#e6e6e6" stroke="black" stroke-width="2" d="M900.86,-180C900.86,-180 735.37,-180 735.37,-180 729.37,-180 723.37,-174 723.37,-168 723.37,-168 723.37,-120 723.37,-120 723.37,-114 729.37,-108 735.37,-108 735.37,-108 900.86,-108 900.86,-108 906.86,-108 912.86,-114 912.86,-120 912.86,-120 912.86,-168 912.86,-168 912.86,-174 906.86,-180 900.86,-180"/>
<text text-anchor="middle" x="818.11" y="-148.2" font-family="Arial" font-size="14.00">dms&#45;security&#45;group</text>
<text text-anchor="middle" x="818.11" y="-131.4" font-family="Arial" font-size="14.00">(AWS::EC2::SecurityGroup)</text>
</g>
<!-- dms&#45;security&#45;group&#45;&gt;destination&#45;vpc -->
<g id="edge15" class="edge">
<title>dms&#45;security&#45;group&#45;&gt;destination&#45;vpc</title>
<path fill="none" stroke="black" d="M913.1,-110.22C915.79,-109.45 918.47,-108.71 921.11,-108 1017.27,-82.25 1130.22,-61.37 1203.15,-49.07"/>
<polygon fill="black" stroke="black" points="1203.72,-52.53 1213.01,-47.42 1202.57,-45.62 1203.72,-52.53"/>
</g>
<!-- dms&#45;instance -->
<g id="node17" class="node">
<title>dms&#45;instance</title>
<path fill="#b7e0ff" stroke="black" stroke-width="2" d="M919.15,-288C919.15,-288 717.08,-288 717.08,-288 711.08,-288 705.08,-282 705.08,-276 705.08,-276 705.08,-228 705.08,-228 705.08,-222 711.08,-216 717.08,-216 717.08,-216 919.15,-216 919.15,-216 925.15,-216 931.15,-222 931.15,-228 931.15,-228 931.15,-276 931.15,-276 931.15,-282 925.15,-288 919.15,-288"/>
<text text-anchor="middle" x="818.11" y="-256.2" font-family="Arial" font-size="14.00">dms&#45;instance</text>
<text text-anchor="middle" x="818.11" y="-239.4" font-family="Arial" font-size="14.00">(AWS::DMS::ReplicationInstance)</text>
</g>
<!-- dms&#45;instance&#45;&gt;destination&#45;vpc -->
<g id="edge16" class="edge">
<title>dms&#45;instance&#45;&gt;destination&#45;vpc</title>
<path fill="none" stroke="black" d="M746.09,-215.66C733.23,-205.95 721.57,-194.11 714.11,-180 699.17,-151.7 692.94,-132 714.11,-108 745.96,-71.9 1056.49,-49.63 1203.14,-41.04"/>
<polygon fill="black" stroke="black" points="1202.97,-44.56 1212.75,-40.49 1202.57,-37.57 1202.97,-44.56"/>
</g>
<!-- dms&#45;instance&#45;&gt;destination public subnet -->
<g id="edge18" class="edge">
<title>dms&#45;instance&#45;&gt;destination public subnet</title>
<path fill="none" stroke="black" d="M931.3,-226.8C998.93,-212.05 1079.39,-193.91 1126.94,-180.48"/>
<polygon fill="black" stroke="black" points="1127.64,-183.92 1136.27,-177.76 1125.69,-177.2 1127.64,-183.92"/>
</g>
<!-- dms&#45;instance&#45;&gt;dms&#45;security&#45;group -->
<g id="edge17" class="edge">
<title>dms&#45;instance&#45;&gt;dms&#45;security&#45;group</title>
<path fill="none" stroke="black" d="M818.11,-215.7C818.11,-207.93 818.11,-199.57 818.11,-191.43"/>
<polygon fill="black" stroke="black" points="821.61,-191.66 818.11,-181.66 814.61,-191.66 821.61,-191.66"/>
</g>
<!-- cloudsql&#45;source -->
<g id="node18" class="node">
<title>cloudsql&#45;source</title>
<path fill="#e78f81" stroke="black" stroke-width="2" d="M705.69,-396C705.69,-396 570.54,-396 570.54,-396 564.54,-396 558.54,-390 558.54,-384 558.54,-384 558.54,-336 558.54,-336 558.54,-330 564.54,-324 570.54,-324 570.54,-324 705.69,-324 705.69,-324 711.69,-324 717.69,-330 717.69,-336 717.69,-336 717.69,-384 717.69,-384 717.69,-390 711.69,-396 705.69,-396"/>
<text text-anchor="middle" x="638.11" y="-364.2" font-family="Arial" font-size="14.00">cloudsql&#45;source</text>
<text text-anchor="middle" x="638.11" y="-347.4" font-family="Arial" font-size="14.00">(AWS::DMS::Endpoint)</text>
</g>
<!-- cloudsql&#45;source&#45;&gt;source&#45;db -->
<g id="edge19" class="edge">
<title>cloudsql&#45;source&#45;&gt;source&#45;db</title>
<path fill="none" stroke="black" d="M612.47,-323.7C606.3,-315.21 599.64,-306.03 593.21,-297.19"/>
<polygon fill="black" stroke="black" points="596.24,-295.4 587.53,-289.37 590.58,-299.51 596.24,-295.4"/>
</g>
<!-- rds -->
<g id="node19" class="node">
<title>rds</title>
<path fill="#e78f81" stroke="black" stroke-width="2" d="M1116.69,-396C1116.69,-396 981.54,-396 981.54,-396 975.54,-396 969.54,-390 969.54,-384 969.54,-384 969.54,-336 969.54,-336 969.54,-330 975.54,-324 981.54,-324 981.54,-324 1116.69,-324 1116.69,-324 1122.69,-324 1128.69,-330 1128.69,-336 1128.69,-336 1128.69,-384 1128.69,-384 1128.69,-390 1122.69,-396 1116.69,-396"/>
<text text-anchor="middle" x="1049.11" y="-364.2" font-family="Arial" font-size="14.00">rds</text>
<text text-anchor="middle" x="1049.11" y="-347.4" font-family="Arial" font-size="14.00">(AWS::DMS::Endpoint)</text>
</g>
<!-- rds&#45;&gt;destinationdb -->
<g id="edge20" class="edge">
<title>rds&#45;&gt;destinationdb</title>
<path fill="none" stroke="black" d="M1059.44,-323.7C1061.74,-315.84 1064.21,-307.38 1066.62,-299.15"/>
<polygon fill="black" stroke="black" points="1069.96,-300.18 1069.41,-289.6 1063.24,-298.21 1069.96,-300.18"/>
</g>
<!-- cloudsql&#45;to&#45;rds&#45;task -->
<g id="node20" class="node">
<title>cloudsql&#45;to&#45;rds&#45;task</title>
<path fill="#b7e0ff" stroke="black" stroke-width="2" d="M907.85,-504C907.85,-504 728.37,-504 728.37,-504 722.37,-504 716.37,-498 716.37,-492 716.37,-492 716.37,-444 716.37,-444 716.37,-438 722.37,-432 728.37,-432 728.37,-432 907.85,-432 907.85,-432 913.85,-432 919.85,-438 919.85,-444 919.85,-444 919.85,-492 919.85,-492 919.85,-498 913.85,-504 907.85,-504"/>
<text text-anchor="middle" x="818.11" y="-472.2" font-family="Arial" font-size="14.00">cloudsql&#45;to&#45;rds&#45;task</text>
<text text-anchor="middle" x="818.11" y="-455.4" font-family="Arial" font-size="14.00">(AWS::DMS::ReplicationTask)</text>
</g>
<!-- cloudsql&#45;to&#45;rds&#45;task&#45;&gt;dms&#45;instance -->
<g id="edge21" class="edge">
<title>cloudsql&#45;to&#45;rds&#45;task&#45;&gt;dms&#45;instance</title>
<path fill="none" stroke="black" d="M818.11,-431.66C818.11,-395.65 818.11,-339.6 818.11,-299.89"/>
<polygon fill="black" stroke="black" points="821.61,-299.9 818.11,-289.9 814.61,-299.9 821.61,-299.9"/>
</g>
<!-- cloudsql&#45;to&#45;rds&#45;task&#45;&gt;cloudsql&#45;source -->
<g id="edge22" class="edge">
<title>cloudsql&#45;to&#45;rds&#45;task&#45;&gt;cloudsql&#45;source</title>
<path fill="none" stroke="black" d="M757.93,-431.56C741.86,-422.1 724.37,-411.8 707.85,-402.07"/>
<polygon fill="black" stroke="black" points="709.94,-399.24 699.55,-397.18 706.39,-405.27 709.94,-399.24"/>
</g>
<!-- cloudsql&#45;to&#45;rds&#45;task&#45;&gt;rds -->
<g id="edge23" class="edge">
<title>cloudsql&#45;to&#45;rds&#45;task&#45;&gt;rds</title>
<path fill="none" stroke="black" d="M895.35,-431.56C916.64,-421.79 939.88,-411.12 961.7,-401.11"/>
<polygon fill="black" stroke="black" points="962.94,-404.39 970.57,-397.04 960.02,-398.03 962.94,-404.39"/>
</g>
</g>
</svg>
